<svg width="82" height="80" viewBox="0 0 82 80" fill="none" xmlns="http://www.w3.org/2000/svg">
<circle cx="42" cy="40" r="40" fill="#F5F5F5"/>
<path d="M37.6577 32.285L37.7577 34.585L36.1577 37.585L33.6577 42.485L33.1577 46.585L34.9577 52.385L39.0577 54.685H45.2577L51.0577 50.285L53.6577 43.385L47.6577 36.085L45.9577 31.985L37.6577 32.285Z" fill="#ECEFF1"/>
<path d="M51.8577 37.985C50.2577 35.685 48.9577 34.285 48.2577 31.385C47.5577 28.485 48.4577 29.285 47.8577 26.785C47.5577 25.485 47.0577 24.585 46.5577 23.885C45.9577 23.185 45.2577 22.785 44.8577 22.685C43.9577 22.185 41.8577 21.385 39.2577 22.785C36.5577 24.185 36.8577 27.185 37.3577 33.285C37.3577 33.685 37.2577 34.185 37.0577 34.585C36.6577 35.485 35.9577 36.285 35.3577 36.985C34.6577 37.985 33.9577 38.985 33.4577 40.085C32.2577 42.385 31.1577 45.285 31.4577 46.385C31.9577 46.285 38.2577 55.885 38.2577 56.085C38.6577 55.985 40.3577 55.985 41.8577 55.985C43.9577 55.885 45.1577 55.785 46.8577 56.185C46.8577 55.885 46.7577 55.585 46.7577 55.285C46.7577 54.685 46.8577 54.185 46.9577 53.485C47.0577 52.985 47.1577 52.485 47.2577 51.885C46.2577 52.785 44.4577 53.785 42.7577 54.085C41.2577 54.385 38.7577 53.885 37.5577 52.385C37.6577 52.385 37.8577 52.385 37.9577 52.285C38.2577 52.185 38.5577 52.085 38.6577 51.885C38.9577 51.385 38.7577 50.885 38.5577 50.585C38.3577 50.285 36.8577 49.185 36.1577 48.585C35.4577 47.985 35.0577 47.685 34.6577 47.285C34.6577 47.285 34.0577 46.685 33.8577 46.485C33.6577 46.285 33.5577 46.085 33.4577 45.985C33.2577 45.485 33.1577 44.885 33.2577 44.085C33.3577 42.985 33.7577 42.085 34.2577 41.085C34.4577 40.685 34.9577 39.885 34.9577 39.885C34.9577 39.885 33.2577 44.085 34.1577 45.385C34.1577 45.385 34.2577 44.085 34.6577 42.785C34.9577 41.885 35.4577 40.585 36.0577 39.885C36.6577 39.185 38.1577 36.585 38.2577 34.985C38.2577 34.285 38.3577 33.585 38.3577 33.085C37.9577 32.685 44.9577 31.685 45.3577 32.785C45.4577 33.185 46.8577 36.785 47.6577 38.685C48.0577 39.585 48.5577 40.385 48.8577 41.385C49.1577 42.485 49.3577 43.985 49.3577 45.485C49.3577 45.785 49.3577 46.285 49.2577 46.785C49.4577 46.785 53.3577 42.585 48.7577 39.085C48.7577 39.085 51.5577 40.385 51.6577 42.985C51.7577 45.085 50.8577 46.785 50.6577 47.085C50.7577 47.085 52.7577 47.985 52.8577 47.985C53.2577 47.985 54.0577 47.685 54.0577 47.685C54.1577 47.385 54.4577 46.585 54.4577 46.285C55.1577 43.985 53.4577 40.285 51.8577 37.985Z" fill="#263238"/>
<path d="M39.1577 31.385C39.8757 31.385 40.4577 30.4896 40.4577 29.385C40.4577 28.2804 39.8757 27.385 39.1577 27.385C38.4398 27.385 37.8577 28.2804 37.8577 29.385C37.8577 30.4896 38.4398 31.385 39.1577 31.385Z" fill="#ECEFF1"/>
<path d="M43.6577 31.585C44.5966 31.585 45.3577 30.5553 45.3577 29.285C45.3577 28.0148 44.5966 26.985 43.6577 26.985C42.7188 26.985 41.9577 28.0148 41.9577 29.285C41.9577 30.5553 42.7188 31.585 43.6577 31.585Z" fill="#ECEFF1"/>
<path d="M39.884 29.5219C39.8009 28.8644 39.4226 28.3706 39.039 28.4191C38.6555 28.4676 38.4119 29.0399 38.495 29.6974C38.5781 30.3549 38.9564 30.8486 39.34 30.8002C39.7235 30.7517 39.9671 30.1794 39.884 29.5219Z" fill="#212121"/>
<path d="M43.5577 30.985C44.11 30.985 44.5577 30.403 44.5577 29.685C44.5577 28.967 44.11 28.385 43.5577 28.385C43.0054 28.385 42.5577 28.967 42.5577 29.685C42.5577 30.403 43.0054 30.985 43.5577 30.985Z" fill="#212121"/>
<path d="M56.8577 51.685C56.4577 51.485 55.7577 51.185 55.1577 50.285C54.8577 49.785 54.9577 48.385 54.4577 47.785C54.1577 47.385 53.7577 47.585 53.6577 47.585C52.7577 47.785 50.6577 49.185 49.2577 47.585C49.0577 47.385 48.7577 47.085 48.2577 47.085C47.7577 47.085 47.5577 47.285 47.3577 47.685C47.1577 48.085 47.1577 48.385 47.1577 49.385C47.1577 50.185 47.1577 51.085 47.0577 51.785C46.8577 53.485 46.5577 54.485 46.5577 55.485C46.5577 56.585 46.8577 57.285 47.2577 57.585C47.5577 57.885 48.0577 58.085 49.1577 58.085C50.2577 58.085 50.9577 57.685 51.6577 56.985C52.1577 56.485 52.5577 56.285 53.9577 55.285C55.0577 54.585 56.7577 53.685 57.0577 53.385C57.2577 53.185 57.5577 53.085 57.5577 52.485C57.5577 51.985 57.1577 51.785 56.8577 51.685Z" fill="#FFC107"/>
<path d="M36.7577 51.985C35.7577 50.385 35.6577 50.085 34.9577 49.085C34.3577 48.085 33.0577 46.185 32.2577 46.185C31.6577 46.185 31.3577 46.485 30.9577 46.885C30.5577 47.285 30.1577 48.185 29.4577 48.685C28.8577 49.185 27.1577 49.085 26.7577 49.685C26.3577 50.285 27.1577 51.185 27.1577 52.685C27.1577 53.285 26.6577 53.685 26.5577 54.085C26.4577 54.585 26.3577 54.885 26.5577 55.285C26.9577 55.885 27.4577 56.085 30.8577 56.785C32.6577 57.185 34.3577 58.185 35.4577 58.285C36.5577 58.385 38.4577 58.285 38.4577 55.585C38.5577 53.985 37.6577 53.585 36.7577 51.985Z" fill="#FFC107"/>
<path d="M38.6577 33.885C38.0577 33.485 37.5577 33.085 37.5577 32.485C37.5577 31.885 37.9577 31.685 38.5577 31.185C38.6577 31.085 39.7577 30.085 40.8577 30.085C41.9577 30.085 43.2577 30.785 43.7577 30.985C44.6577 31.185 45.5577 31.385 45.4577 32.085C45.3577 33.085 45.2577 33.285 44.2577 33.785C43.5577 33.985 42.2577 35.085 41.3577 35.085C40.9577 35.085 40.3577 35.085 39.9577 34.985C39.6577 34.885 39.1577 34.385 38.6577 33.885Z" fill="#FFC107"/>
<path d="M38.4577 33.085C38.6577 33.285 38.9577 33.485 39.2577 33.585C39.4577 33.685 39.7577 33.785 39.7577 33.785C40.1577 33.785 40.4577 33.785 40.6577 33.785C41.1577 33.785 41.8577 33.585 42.5577 33.185C43.2577 32.885 43.3577 32.685 43.8577 32.485C44.3577 32.185 44.8577 31.885 44.6577 31.785C44.4577 31.685 44.2577 31.785 43.5577 32.185C42.9577 32.585 42.4577 32.785 41.8577 33.085C41.5577 33.185 41.1577 33.385 40.8577 33.385C40.5577 33.385 40.2577 33.385 39.9577 33.385C39.6577 33.385 39.4577 33.285 39.1577 33.185C38.9577 33.085 38.8577 32.985 38.7577 32.985C38.5577 32.885 38.1577 32.485 37.9577 32.385C37.9577 32.385 37.7577 32.385 37.8577 32.485C38.1577 32.785 38.2577 32.885 38.4577 33.085Z" fill="#634703"/>
<path d="M41.4577 30.885C41.5577 31.085 41.7577 31.085 41.8577 31.185C41.9577 31.285 42.0577 31.285 42.0577 31.285C42.1577 31.185 42.0577 30.985 41.9577 30.985C41.9577 30.785 41.4577 30.785 41.4577 30.885Z" fill="#634703"/>
<path d="M39.8577 31.085C39.8577 31.185 40.0577 31.285 40.0577 31.185C40.1577 31.085 40.2577 30.985 40.3577 30.985C40.5577 30.885 40.4577 30.785 40.1577 30.785C39.9577 30.885 39.9577 30.985 39.8577 31.085Z" fill="#634703"/>
<path d="M49.5577 48.785C49.5577 48.885 49.5577 48.985 49.5577 49.085C49.7577 49.485 50.2577 49.585 50.6577 49.585C51.2577 49.585 51.8577 49.185 52.1577 48.785C52.1577 48.685 52.2577 48.585 52.3577 48.485C52.5577 48.185 52.6577 47.985 52.7577 47.885C52.7577 47.885 52.6577 47.785 52.6577 47.685C52.5577 47.485 52.2577 47.285 51.8577 47.185C51.5577 47.085 51.0577 46.985 50.8577 46.985C49.9577 46.885 49.4577 47.185 49.1577 47.485C49.1577 47.485 49.2577 47.485 49.2577 47.585C49.4577 47.785 49.5577 47.985 49.5577 48.285C49.6577 48.485 49.5577 48.585 49.5577 48.785Z" fill="#455A64"/>
</svg>
