<svg width="512" height="512" viewBox="0 0 512 512" fill="none" xmlns="http://www.w3.org/2000/svg">
<g clip-path="url(#clip0_6_135)">
<path d="M169.591 502.988L114.045 274.273L319.349 149.913L369.994 241.831L299.744 450.541L169.591 502.988Z" fill="white"/>
<path d="M242.198 18.4242L187.178 58.098L114.624 273.988L140.476 319.186L319.529 148.996L169.138 237.718L216.346 61.446L242.198 18.4242Z" fill="white"/>
<path d="M318.63 50.844L360.218 67.026L375.392 56.424L324.25 37.452L318.63 50.844Z" fill="white"/>
<path d="M321.777 48.7794L377.696 61.2786L322.901 78.3534L321.777 48.7794Z" fill="#EB9009"/>
<path d="M178.692 502.824L288.9 473.194L357.97 503.382L178.692 502.824Z" fill="#EB9009"/>
<path d="M316.944 33.546L319.349 144.253L154.863 248.097L205.331 63.9012L249.785 9.3288L316.944 33.546Z" fill="black"/>
<path d="M135.98 316.173L319.349 144.253L241.074 289.668L210.67 444.959L184.312 397.362L135.98 316.173Z" fill="black"/>
<path d="M253.244 63.678C253.244 74.9572 262.441 84.012 273.67 84.012C284.899 84.012 294.096 74.9572 294.096 63.678C294.096 52.3989 284.899 43.344 273.67 43.344C262.441 43.344 253.244 52.3989 253.244 63.678Z" fill="white" stroke="black" stroke-width="15"/>
<path d="M392.252 57.2052L318.293 83.2638V142.858M392.252 57.2052L318.349 82.9848L318.293 31.9482M392.252 57.2052L318.293 31.9482M112.095 276.834L186.279 55.308L249.279 8.3802L318.293 31.9482M112.095 276.834L169.046 503.664M112.095 276.834L318.293 142.858M112.095 276.834L210.389 444.959L239.613 292.514L318.293 142.858M169.046 503.664L359.544 503.215L300.983 448.419M169.046 503.664L283.407 503.37L300.983 448.419M169.046 503.664L300.983 448.419M300.983 448.419L367.974 241.178L318.293 142.858" stroke="black" stroke-width="15" stroke-linejoin="round"/>
</g>
<defs>
<clipPath id="clip0_6_135">
<rect width="512" height="512" fill="white"/>
</clipPath>
</defs>
</svg>
