<svg xmlns="http://www.w3.org/2000/svg" xmlns:xlink="http://www.w3.org/1999/xlink" width="1640" zoomAndPan="magnify" viewBox="0 0 1230 693.000001" height="924" preserveAspectRatio="xMidYMid meet" version="1.0"><defs><g/><clipPath id="e9f567056e"><path d="M 0.886719 0 L 1229.113281 0 L 1229.113281 692 L 0.886719 692 Z M 0.886719 0 " clip-rule="nonzero"/></clipPath><clipPath id="67d9ec0229"><path d="M 535 289 L 1229.113281 289 L 1229.113281 692 L 535 692 Z M 535 289 " clip-rule="nonzero"/></clipPath><clipPath id="3ca911fe57"><path d="M 535.4375 717.773438 L 1260.714844 289.015625 L 1436.792969 586.863281 L 711.511719 1015.621094 Z M 535.4375 717.773438 " clip-rule="nonzero"/></clipPath><clipPath id="3011e427b7"><path d="M 0.886719 0 L 768 0 L 768 274 L 0.886719 274 Z M 0.886719 0 " clip-rule="nonzero"/></clipPath><clipPath id="0c66cfa79e"><path d="M -160.917969 60.585938 L 641.722656 -413.910156 L 767.875 -200.515625 L -34.769531 273.976562 Z M -160.917969 60.585938 " clip-rule="nonzero"/></clipPath></defs><g clip-path="url(#e9f567056e)"><path fill="#ffffff" d="M 0.886719 0 L 1229.113281 0 L 1229.113281 699.492188 L 0.886719 699.492188 Z M 0.886719 0 " fill-opacity="1" fill-rule="nonzero"/><path fill="#ffffff" d="M 0.886719 0 L 1229.113281 0 L 1229.113281 692 L 0.886719 692 Z M 0.886719 0 " fill-opacity="1" fill-rule="nonzero"/><path fill="#0b1320" d="M 0.886719 0 L 1229.113281 0 L 1229.113281 692 L 0.886719 692 Z M 0.886719 0 " fill-opacity="1" fill-rule="nonzero"/></g><g clip-path="url(#67d9ec0229)"><g clip-path="url(#3ca911fe57)"><path fill="#afc1d0" d="M 535.4375 717.773438 L 1260.714844 289.015625 L 1436.792969 586.863281 L 711.511719 1015.621094 Z M 535.4375 717.773438 " fill-opacity="1" fill-rule="nonzero"/></g></g><g fill="#f3f6fa" fill-opacity="1"><g transform="translate(423.899678, 486.144589)"><g><path d="M 19.359375 0 L 16.46875 0 L 12.515625 -13.015625 L 8.515625 0 L 5.609375 0 L 0.078125 -16.6875 L 3.09375 -16.6875 L 7.15625 -3.125 L 11.1875 -16.671875 L 13.953125 -16.6875 L 18 -3.125 L 22.03125 -16.6875 L 24.9375 -16.6875 Z M 19.359375 0 "/></g></g></g><g fill="#f3f6fa" fill-opacity="1"><g transform="translate(465.880846, 486.144589)"><g><path d="M 19.359375 0 L 16.46875 0 L 12.515625 -13.015625 L 8.515625 0 L 5.609375 0 L 0.078125 -16.6875 L 3.09375 -16.6875 L 7.15625 -3.125 L 11.1875 -16.671875 L 13.953125 -16.6875 L 18 -3.125 L 22.03125 -16.6875 L 24.9375 -16.6875 Z M 19.359375 0 "/></g></g></g><g fill="#f3f6fa" fill-opacity="1"><g transform="translate(507.862013, 486.144589)"><g><path d="M 19.359375 0 L 16.46875 0 L 12.515625 -13.015625 L 8.515625 0 L 5.609375 0 L 0.078125 -16.6875 L 3.09375 -16.6875 L 7.15625 -3.125 L 11.1875 -16.671875 L 13.953125 -16.6875 L 18 -3.125 L 22.03125 -16.6875 L 24.9375 -16.6875 Z M 19.359375 0 "/></g></g></g><g fill="#f3f6fa" fill-opacity="1"><g transform="translate(549.843181, 486.144589)"><g><path d="M 1.515625 -2.484375 C 1.804688 -2.785156 2.164062 -2.9375 2.59375 -2.9375 C 3.03125 -2.9375 3.390625 -2.785156 3.671875 -2.484375 C 3.953125 -2.191406 4.09375 -1.828125 4.09375 -1.390625 C 4.09375 -0.921875 3.953125 -0.535156 3.671875 -0.234375 C 3.390625 0.0664062 3.03125 0.21875 2.59375 0.21875 C 2.164062 0.21875 1.804688 0.0664062 1.515625 -0.234375 C 1.234375 -0.535156 1.09375 -0.921875 1.09375 -1.390625 C 1.09375 -1.828125 1.234375 -2.191406 1.515625 -2.484375 Z M 1.515625 -2.484375 "/></g></g></g><g fill="#f3f6fa" fill-opacity="1"><g transform="translate(572.325901, 486.144589)"><g><path d="M 5 -2.546875 L 12.234375 -2.546875 L 12.234375 0 L 2.1875 0 L 2.1875 -16.6875 L 5 -16.6875 Z M 5 -2.546875 "/></g></g></g><g fill="#f3f6fa" fill-opacity="1"><g transform="translate(602.341033, 486.144589)"><g><path d="M 5 0 L 2.1875 0 L 2.1875 -16.6875 L 5 -16.6875 Z M 5 0 "/></g></g></g><g fill="#f3f6fa" fill-opacity="1"><g transform="translate(626.82604, 486.144589)"><g><path d="M 16.671875 0 L 13.90625 0 L 5 -11.96875 L 5 0 L 2.1875 0 L 2.1875 -16.6875 L 4.953125 -16.6875 L 13.90625 -4.703125 L 13.90625 -16.6875 L 16.671875 -16.6875 Z M 16.671875 0 "/></g></g></g><g fill="#f3f6fa" fill-opacity="1"><g transform="translate(662.991038, 486.144589)"><g><path d="M 16.375 -16.6875 L 16.375 -6.921875 C 16.375 -4.734375 15.726562 -3.007812 14.4375 -1.75 C 13.15625 -0.5 11.382812 0.125 9.125 0.125 C 6.875 0.125 5.097656 -0.5 3.796875 -1.75 C 2.503906 -3.007812 1.859375 -4.734375 1.859375 -6.921875 L 1.859375 -16.6875 L 4.671875 -16.6875 L 4.671875 -6.921875 C 4.671875 -5.515625 5.070312 -4.410156 5.875 -3.609375 C 6.675781 -2.804688 7.769531 -2.40625 9.15625 -2.40625 C 10.519531 -2.40625 11.59375 -2.800781 12.375 -3.59375 C 13.164062 -4.394531 13.5625 -5.503906 13.5625 -6.921875 L 13.5625 -16.6875 Z M 16.375 -16.6875 "/></g></g></g><g fill="#f3f6fa" fill-opacity="1"><g transform="translate(698.488619, 486.144589)"><g><path d="M 1.515625 -2.484375 C 1.804688 -2.785156 2.164062 -2.9375 2.59375 -2.9375 C 3.03125 -2.9375 3.390625 -2.785156 3.671875 -2.484375 C 3.953125 -2.191406 4.09375 -1.828125 4.09375 -1.390625 C 4.09375 -0.921875 3.953125 -0.535156 3.671875 -0.234375 C 3.390625 0.0664062 3.03125 0.21875 2.59375 0.21875 C 2.164062 0.21875 1.804688 0.0664062 1.515625 -0.234375 C 1.234375 -0.535156 1.09375 -0.921875 1.09375 -1.390625 C 1.09375 -1.828125 1.234375 -2.191406 1.515625 -2.484375 Z M 1.515625 -2.484375 "/></g></g></g><g fill="#f3f6fa" fill-opacity="1"><g transform="translate(720.971328, 486.144589)"><g><path d="M 2.1875 -16.6875 L 9.03125 -16.6875 C 11.53125 -16.6875 13.59375 -15.898438 15.21875 -14.328125 C 16.851562 -12.753906 17.671875 -10.757812 17.671875 -8.34375 C 17.671875 -5.925781 16.847656 -3.929688 15.203125 -2.359375 C 13.566406 -0.785156 11.488281 0 8.96875 0 L 2.1875 0 Z M 5 -14.15625 L 5 -2.53125 L 9.109375 -2.53125 C 10.742188 -2.53125 12.101562 -3.070312 13.1875 -4.15625 C 14.28125 -5.25 14.828125 -6.632812 14.828125 -8.3125 C 14.828125 -10 14.265625 -11.394531 13.140625 -12.5 C 12.023438 -13.601562 10.640625 -14.15625 8.984375 -14.15625 Z M 5 -14.15625 "/></g></g></g><g fill="#f3f6fa" fill-opacity="1"><g transform="translate(756.731104, 486.144589)"><g><path d="M 14.109375 -14.15625 L 5 -14.15625 L 5 -9.65625 L 13.15625 -9.65625 L 13.15625 -7.125 L 5 -7.125 L 5 -2.53125 L 14.40625 -2.53125 L 14.40625 0 L 2.1875 0 L 2.1875 -16.6875 L 14.109375 -16.6875 Z M 14.109375 -14.15625 "/></g></g></g><g fill="#f3f6fa" fill-opacity="1"><g transform="translate(789.65432, 486.144589)"><g><path d="M 9.640625 0 L 6.71875 0 L 0.078125 -16.6875 L 3.09375 -16.6875 L 8.25 -3.125 L 13.453125 -16.6875 L 16.375 -16.6875 Z M 9.640625 0 "/></g></g></g><g fill="#f3f6fa" fill-opacity="1"><g transform="translate(486.943549, 320.537471)"><g><path d="M 4.949219 0 L 69.3125 0 L 69.3125 -16.089844 L 27.230469 -16.089844 L 27.230469 -57.761719 L 4.949219 -57.761719 Z M 4.949219 0 "/></g></g></g><g fill="#f3f6fa" fill-opacity="1"><g transform="translate(565.328809, 320.537471)"><g><path d="M 4.949219 0 L 27.230469 0 L 27.230469 -31.355469 L 46.207031 0 L 73.4375 0 L 73.4375 -57.761719 L 51.160156 -57.761719 L 51.160156 -26.40625 L 32.179688 -57.761719 L 4.949219 -57.761719 Z M 4.949219 0 "/></g></g></g><g fill="#f3f6fa" fill-opacity="1"><g transform="translate(650.314857, 320.537471)"><g><path d="M 44.558594 0 L 70.136719 0 L 55.285156 -28.878906 L 70.136719 -57.761719 L 44.558594 -57.761719 L 35.894531 -40.929688 L 27.230469 -57.761719 L 1.648438 -57.761719 L 16.503906 -28.878906 L 1.648438 0 L 27.230469 0 L 35.894531 -16.832031 Z M 44.558594 0 "/></g></g></g><g fill="#f3f6fa" fill-opacity="1"><g transform="translate(486.943549, 419.394816)"><g><path d="M 4.949219 0 L 27.230469 0 L 27.230469 -28.878906 L 33.417969 0 L 54.460938 0 L 61.0625 -30.859375 L 61.0625 0 L 82.929688 0 L 82.929688 -57.761719 L 50.746094 -57.761719 L 43.980469 -25.910156 L 37.132812 -57.761719 L 4.949219 -57.761719 Z M 4.949219 0 "/></g></g></g><g fill="#f3f6fa" fill-opacity="1"><g transform="translate(581.418221, 419.394816)"><g><path d="M 4.949219 0 L 48.683594 0 C 62.546875 0 69.3125 -4.539062 69.3125 -16.339844 C 69.3125 -23.351562 66.921875 -27.972656 61.96875 -30.53125 C 64.113281 -33.089844 65.1875 -36.554688 65.1875 -41.09375 C 65.1875 -52.808594 58.339844 -57.761719 44.144531 -57.761719 L 4.949219 -57.761719 Z M 27.230469 -14.027344 L 27.230469 -21.867188 L 42.082031 -21.867188 C 45.054688 -21.867188 47.035156 -20.960938 47.035156 -17.90625 C 47.035156 -14.851562 45.136719 -14.027344 42.082031 -14.027344 Z M 27.230469 -35.894531 L 27.230469 -43.734375 L 38.371094 -43.734375 C 41.175781 -43.734375 42.910156 -42.824219 42.910156 -39.773438 C 42.910156 -36.71875 41.175781 -35.894531 38.371094 -35.894531 Z M 27.230469 -35.894531 "/></g></g></g><g fill="#f3f6fa" fill-opacity="1"><g transform="translate(658.153289, 419.394816)"><g><path d="M 4.949219 0 L 69.3125 0 L 69.3125 -16.089844 L 27.230469 -16.089844 L 27.230469 -57.761719 L 4.949219 -57.761719 Z M 4.949219 0 "/></g></g></g><g clip-path="url(#3011e427b7)"><g clip-path="url(#0c66cfa79e)"><path fill="#afc1d0" d="M -160.917969 60.585938 L 641.722656 -413.910156 L 767.875 -200.515625 L -34.769531 273.976562 Z M -160.917969 60.585938 " fill-opacity="1" fill-rule="nonzero"/></g></g></svg>